# xmcd
#
# Track frame offsets: 
#        183
#        10458
#        29088
#        61253
#        97153
#        117455
#        139610
#        155843
#        184010
#        199693
#        222963
#        244148
#        275498
#        312200
#
# Disc length: 4452 seconds
#
# Revision: 4
# Processed by: cddbd v1.5.2PL0 Copyright (c) Steve Scherf et al.
# Submitted via: ExactAudioCopyFreeDBPlugin 1.0
#
DISCID=d411620e
DTITLE=Barry White - Just for You [box set]
DYEAR=2000
DGENRE=SMB
TTITLE0=Prologue
TTITLE1=Love's Theme
TTITLE2=I'm Gonna Love You Just Little More Baby
TTITLE3=Never Never Gonna Give You Up
TTITLE4=Can't Get Enough of Your Love, Babe
TTITLE5=You're the First, the Last, My Everything
TTITLE6=What Am I Gonna Do with You
TTITLE7=Let the Music Play
TTITLE8=You See the Trouble with Me
TTITLE9=Honey Please Can't Ya See
TTITLE10=Don't Make Me Wait Too Long
TTITLE11=It's Ecstasy When You Lay Down Next to Me
TTITLE12=Your Sweetness is My Weakness
TTITLE13=L.A. My Kinda Place
EXTD=YEAR: 2000
EXTT0=
EXTT1=
EXTT2=
EXTT3=
EXTT4=
EXTT5=
EXTT6=
EXTT7=
EXTT8=
EXTT9=
EXTT10=
EXTT11=
EXTT12=
EXTT13=
PLAYORDER=
